<svg xmlns="http://www.w3.org/2000/svg" enable-background="new 0 0 64 64" viewBox="0 0 64 64" id="cyber-hacker">
  <path d="M24.51,53.5h14.98L32,40.54L24.51,53.5z M31.4,51.17c0-0.34,0.26-0.6,0.6-0.6c0.33,0,0.6,0.27,0.6,0.6v0.31
		c0,0.33-0.27,0.6-0.6,0.6c-0.34,0-0.6-0.26-0.6-0.6V51.17z M32.6,48.76c0,0.33-0.27,0.6-0.6,0.6c-0.33,0-0.6-0.27-0.6-0.6v-4.12
		c0-0.33,0.27-0.6,0.6-0.6c0.33,0,0.6,0.27,0.6,0.6V48.76z"></path>
  <path d="M51.48 36.06c0-.5-.42-.91-.91-.91H14.02c-.5 0-.9.41-.9.91v22.45h38.37v-8.62L51.48 36.06zM40.49 54.08c-.23.39-.62.62-1.08.62H24.58c-.45 0-.86-.24-1.08-.62-.22-.38-.22-.86 0-1.24L30.92 40c.22-.38.64-.62 1.08-.62.43 0 .84.24 1.06.62l7.43 12.85C40.71 53.22 40.71 53.71 40.49 54.08zM11.23 61.67c0 1.29 1.05 2.33 2.33 2.33h37.46c1.29 0 2.34-1.05 2.34-2.33V59.7H11.23V61.67zM35.71 24.5l-.76.51c-.12.08-.26.15-.37.19-.18.06-.38.1-.59.1-.48 0-1.05-.19-1.68-.55C32.2 24.7 32.1 24.67 32 24.67c-.1 0-.2.03-.31.08-.63.36-1.2.55-1.68.55-.21 0-.41-.04-.59-.1-.11-.04-.25-.11-.37-.19l-.76-.51.87-.25c.35-.1.66-.27.92-.51.45-.39.78-.57 1.03-.57.2.03.33.11.46.25.1.11.25.18.43.18s.33-.07.43-.18c.13-.14.26-.22.46-.25.25 0 .58.18 1.03.57.26.24.57.41.92.51L35.71 24.5z"></path>
  <path d="M39.84,11.93c-0.29-0.19-0.61-0.28-0.94-0.28c-0.21,0-0.42,0.04-0.62,0.12c-2.8,1.12-6.19,1.39-6.19,1.39l-0.14,0
		c-0.03,0-3.42-0.27-6.22-1.39c-0.21-0.08-0.42-0.12-0.63-0.12c-0.33,0-0.65,0.1-0.94,0.29c-0.48,0.33-0.76,0.86-0.76,1.43v7.36
		c0,1.01,0.4,1.97,1.12,2.69c0.59,0.59,1.03,1.33,1.26,2.12c0.49,1.71,1.93,4.66,6.05,5.25l0.13,0.02h0.07l0.14-0.01
		c4.13-0.59,5.57-3.55,6.06-5.26c0.24-0.8,0.67-1.53,1.27-2.12c0.72-0.73,1.11-1.68,1.11-2.69v-7.36
		C40.6,12.8,40.32,12.26,39.84,11.93z M34,26.5c-0.56,0-1.17-0.15-1.82-0.45L32,25.96l-0.18,0.08c-0.65,0.3-1.26,0.46-1.83,0.46
		c-0.34,0-0.67-0.06-0.97-0.17c-1.01-0.38-1.79-1.31-2.36-2.86c-0.09-0.23-0.02-0.49,0.16-0.65c0.11-0.09,0.25-0.15,0.4-0.15
		c0.1,0,0.2,0.03,0.29,0.08l0.42,0.23c0.18,0.1,0.38,0.15,0.59,0.15c0.28,0,0.55-0.1,0.76-0.28c0.66-0.59,1.28-0.89,1.84-0.89
		c0.24,0,0.47,0.05,0.69,0.16L32,22.21l0.18-0.09c0.22-0.11,0.45-0.16,0.69-0.16c0.56,0,1.18,0.3,1.84,0.89
		c0.2,0.18,0.47,0.28,0.75,0.28c0.2,0,0.41-0.05,0.58-0.15l0.44-0.23c0.09-0.05,0.2-0.08,0.3-0.08c0.14,0,0.27,0.05,0.38,0.15
		c0.19,0.16,0.26,0.42,0.17,0.66c-0.57,1.54-1.34,2.48-2.35,2.85C34.67,26.44,34.34,26.5,34,26.5z M28.17,16.31l0.13,0
		c1.4,0.08,2.3,1.46,2.54,1.87c0.16,0.29,0.05,0.66-0.23,0.82c-0.09,0.05-0.19,0.08-0.29,0.08c-0.23,0-0.42-0.12-0.53-0.33
		c-0.03-0.05-0.71-1.2-1.56-1.24l-0.03,0c-0.55,0-1.1,0.42-1.7,1.3c-0.12,0.17-0.3,0.27-0.5,0.27c-0.12,0-0.23-0.04-0.33-0.1
		c-0.27-0.18-0.34-0.57-0.16-0.83C26.35,16.91,27.22,16.31,28.17,16.31z M35.79,17.51l-0.01,0l-0.02,0
		c-0.85,0.04-1.52,1.19-1.56,1.25c-0.11,0.19-0.31,0.31-0.52,0.31c-0.1,0-0.19-0.03-0.29-0.08c-0.14-0.07-0.24-0.2-0.28-0.35
		c-0.05-0.15-0.03-0.32,0.04-0.45c0.24-0.42,1.15-1.8,2.55-1.88l0.13,0c0.96,0,1.83,0.6,2.67,1.83c0.18,0.27,0.11,0.65-0.15,0.83
		c-0.11,0.07-0.23,0.11-0.34,0.11c-0.2,0-0.39-0.1-0.5-0.27C36.92,17.96,36.35,17.53,35.79,17.51z"></path>
  <path d="M58.29,40.41c-0.57-2.2-1.65-4.25-3.1-5.93c-1.47-1.72-3.36-3.12-5.48-4.02c-0.22-0.09-0.36-0.3-0.37-0.53
		c-0.01-0.23,0.13-0.45,0.33-0.56c1.82-0.9,2.9-2.04,3.22-3.37c0.44-1.77-0.51-3.41-0.84-3.9l-5.36-7.2
		c-2.01-2.87-3.92-5.83-5.76-8.69l-1.56-2.42C37.81,1.34,35.19,0,32,0c-3.19,0-5.81,1.34-7.38,3.78L23.06,6.2
		c-1.85,2.86-3.75,5.83-5.75,8.66l-5.39,7.25c-0.05,0.08-1.32,1.91-0.83,3.9c0.34,1.33,1.42,2.46,3.23,3.36
		c0.21,0.1,0.34,0.32,0.34,0.56c-0.01,0.23-0.15,0.44-0.37,0.53c-2.1,0.89-4,2.28-5.48,4.01c-1.47,1.71-2.54,3.76-3.13,6.03
		l-0.44,7.46c-0.02,0.32,0.1,0.64,0.32,0.89c0.24,0.24,0.54,0.36,0.86,0.36h5.48V36.06c0-1.16,0.94-2.11,2.1-2.11h36.54
		c1.16,0,2.11,0.95,2.11,2.11v13.15h4.89c0.32,0,0.63-0.13,0.88-0.38c0.22-0.23,0.33-0.55,0.31-0.88L58.29,40.41z M41.8,13.36v7.36
		c0,1.34-0.52,2.59-1.46,3.54c-0.47,0.47-0.79,1.02-0.96,1.61c-0.46,1.6-2.06,5.39-7.03,6.1l-0.31,0.05l-0.12-0.01l-0.31-0.04
		c-4.92-0.71-6.53-4.5-6.99-6.09c-0.16-0.6-0.5-1.15-0.96-1.6c-0.94-0.95-1.47-2.21-1.47-3.55v-7.36c0-0.97,0.48-1.87,1.29-2.41
		c0.48-0.33,1.04-0.5,1.62-0.5c0.36,0,0.72,0.07,1.06,0.21c2.16,0.86,4.77,1.19,5.88,1.3c1.02-0.11,3.64-0.44,5.79-1.3
		c0.34-0.14,0.7-0.21,1.07-0.21c0.58,0,1.14,0.17,1.62,0.5C41.32,11.49,41.8,12.4,41.8,13.36z"></path>
</svg>
